<svg xmlns="http://www.w3.org/2000/svg" xmlns:xlink="http://www.w3.org/1999/xlink" preserveAspectRatio="xMidYMid" width="56" height="59" viewBox="0 0 56 59">
  <defs>
    <style>
      .cls-1 {
        fill: #9dcf32;
        fill-rule: evenodd;
      }
    </style>
  </defs>
  <path d="M51.373,25.531 L33.093,44.717 L41.975,53.462 L36.006,58.163 L27.650,49.935 L19.294,58.163 L13.325,53.462 L22.174,44.749 L3.923,25.531 C1.437,22.661 0.194,19.388 0.194,15.583 C0.194,6.904 7.447,0.561 16.287,0.561 C20.499,0.561 24.160,2.364 26.992,4.901 C27.131,5.168 27.406,5.435 27.752,5.568 C31.068,2.363 34.521,0.561 39.838,0.561 C48.126,0.561 55.103,7.504 55.103,15.583 C55.103,19.389 53.651,22.661 51.373,25.531 ZM39.423,8.106 C34.935,8.106 31.620,11.244 31.620,15.583 C31.620,17.720 29.547,19.389 27.752,19.389 C25.542,19.389 23.815,17.853 23.815,15.583 C23.815,11.244 20.154,8.106 15.872,8.106 C11.521,8.106 8.067,11.445 8.067,15.583 C8.067,17.386 8.620,19.122 9.863,20.456 L27.752,39.418 L45.433,20.456 C46.608,19.188 47.159,17.319 47.159,15.583 C47.159,11.244 43.914,8.106 39.423,8.106 Z" class="cls-1"/>
</svg>
